#!OML:ASF E:\emotionWalksFemale\Project 1\Capture day 1\Session 1\Female1.ASF
:FULLY-SPECIFIED
:DEGREES
149
root 9.01607 15.5319 22.465 181.708 1.80546 -179.629
lowerback 8.63548 0.878778 -0.177913
upperback -4.12966 1.17395 -0.453216
thorax -9.23926 0.58693 -0.579301
lowerneck -6.61471 -2.08125 -6.76627
upperneck 4.94665 -2.67644 7.22627
head 3.0384 -1.24108 3.52022
rclavicle -1.4387e-014 1.27222e-014
rhumerus -39.9429 7.5525 -85.0359
rradius 29.7403
rwrist 34.1341
rhand -14.4394 -49.6883
rfingers 7.12502
rthumb 11.7054 -79.3413
lclavicle -1.4387e-014 1.27222e-014
lhumerus -35.7797 7.16485 71.6593
lradius 29.8563
lwrist -21.4477
lhand 7.88977 -30.3064
lfingers 7.12502
lthumb 33.1222 -3.33204
rfemur -1.29425 18.2235 24.8735
rtibia 15.1552
rfoot -14.5865 -28.3588
rtoes -2.74038
lfemur -7.13393 -20.4205 -21.6562
ltibia 23.3578
lfoot -20.4215 21.6144
ltoes -37.0379
150
root 9.00837 15.5312 22.4658 181.758 1.9144 -179.761
lowerback 8.62562 0.892194 -0.270382
upperback -4.09396 1.17554 -0.499539
thorax -9.19535 0.591432 -0.576033
lowerneck -6.66092 -2.04969 -6.68086
upperneck 4.77263 -2.62709 7.18193
head 2.98016 -1.21488 3.48809
rclavicle -1.72446e-014 -5.36719e-015
rhumerus -39.9162 7.49501 -84.8169
rradius 29.6261
rwrist 33.6127
rhand -14.9966 -49.4132
rfingers 7.12502
rthumb 11.1681 -79.0959
lclavicle -1.72446e-014 -5.36719e-015
lhumerus -35.7707 6.83244 71.4907
lradius 29.855
lwrist -21.152
lhand 8.40737 -29.909
lfingers 7.12502
lthumb 33.6143 -3.04047
rfemur -1.46413 18.09 24.6534
rtibia 15.3323
rfoot -14.9345 -28.1761
rtoes -2.40548
lfemur -7.13195 -20.3534 -21.8204
ltibia 23.2849
lfoot -20.3106 21.684
ltoes -37.1308
151
root 9.00099 15.5314 22.468 181.833 2.07084 -179.744
lowerback 8.62486 0.92512 -0.225605
upperback -4.07651 1.22481 -0.494301
thorax -9.17469 0.612449 -0.603359
lowerneck -6.65163 -2.02796 -6.73106
upperneck 4.57542 -2.58957 7.2546
head 2.91126 -1.19512 3.52297
rclavicle 1.00386e-014 3.97569e-016
rhumerus -39.9782 7.55788 -84.6525
rradius 29.5138
rwrist 32.7512
rhand -15.3126 -49.8149
rfingers 7.12502
rthumb 10.8633 -79.5139
lclavicle 1.00386e-014 3.97569e-016
lhumerus -35.8245 6.63247 71.3241
lradius 29.9195
lwrist -21.0883
lhand 8.57506 -29.6916
lfingers 7.12502
lthumb 33.7736 -2.85787
rfemur -1.64812 18.0525 24.5955
rtibia 15.4689
rfoot -15.0615 -28.0276
rtoes -2.46023
lfemur -7.17721 -20.349 -21.8139
ltibia 23.2531
lfoot -20.2633 21.8396
ltoes -37.0824
152
root 8.99558 15.5312 22.4707 181.865 2.19049 -179.625
lowerback 8.68196 0.922397 -0.13006
upperback -4.02755 1.23495 -0.428962
thorax -9.15415 0.612468 -0.589465
lowerneck -6.72614 -1.96798 -6.8294
upperneck 4.40214 -2.4949 7.36192
head 2.86409 -1.14545 3.58303
rclavicle 1.06412e-014 3.97569e-015
rhumerus -40.0622 7.2985 -84.1342
rradius 28.7695
rwrist 34.9579
rhand -15.0914 -49.254
rfingers 7.12502
rthumb 11.0766 -78.9417
lclavicle 1.06412e-014 3.97569e-015
lhumerus -35.8576 6.58733 71.1376
lradius 29.8937
lwrist -21.0957
lhand 7.42997 -30.2859
lfingers 7.12502
lthumb 32.6849 -3.21976
rfemur -1.75683 18.0793 24.684
rtibia 15.5678
rfoot -15.5546 -27.9192
rtoes -1.67613
lfemur -7.2201 -20.2876 -21.6948
ltibia 23.2593
lfoot -20.1499 22.0281
ltoes -37.3975
153
root 8.99028 15.5297 22.4736 181.816 2.28538 -179.56
lowerback 8.61898 0.912046 -0.0485093
upperback -3.83477 1.2253 -0.407783
thorax -8.90569 0.60156 -0.60647
lowerneck -6.91502 -1.91229 -6.82594
upperneck 4.21627 -2.407 7.4341
head 2.83136 -1.09676 3.61056
rclavicle 4.1869e-015 -5.56597e-015
rhumerus -39.8251 6.99886 -83.6975
rradius 28.9441
rwrist 35.2168
rhand -16.2963 -49.1715
rfingers 7.12502
rthumb 9.91426 -78.9181
lclavicle 4.1869e-015 -5.56597e-015
lhumerus -35.7428 6.56635 70.8686
lradius 29.8498
lwrist -20.9096
lhand 6.81093 -30.7091
lfingers 7.12502
lthumb 32.0957 -3.5224
rfemur -1.78189 18.0737 24.7416
rtibia 15.646
rfoot -15.8178 -27.867
rtoes -1.35078
lfemur -7.20073 -20.1028 -21.6554
ltibia 23.2902
lfoot -20.0896 22.0631
ltoes -37.8383
154
root 8.98392 15.5293 22.4766 181.81 2.43177 -179.583
lowerback 8.08359 0.9228 0.00890325
upperback -3.41724 1.23344 -0.448422
thorax -8.13809 0.600469 -0.66499
lowerneck -7.03464 -1.88106 -6.78441
upperneck 3.71848 -2.3484 7.52196
head 2.68131 -1.0642 3.6303
rclavicle 1.15233e-014 1.19271e-015
rhumerus -39.1214 6.47083 -83.1456
rradius 28.9641
rwrist 35.7051
rhand -15.3066 -49.5855
rfingers 7.12502
rthumb 10.8691 -79.2842
lclavicle 1.15233e-014 1.19271e-015
lhumerus -35.3239 6.87007 70.473
lradius 29.6515
lwrist -21.0794
lhand 6.95983 -30.9545
lfingers 7.12502
lthumb 32.2375 -3.79644
rfemur -1.86009 18.0299 24.6724
rtibia 15.7037
rfoot -15.4482 -27.7779
rtoes -2.21129
lfemur -7.20658 -19.9185 -21.702
ltibia 23.339
lfoot -20.3233 21.9388
ltoes -37.4178
155
root 8.97738 15.5302 22.4803 181.876 2.61942 -179.624
lowerback 8.01739 0.935221 -0.0326025
upperback -3.34879 1.2435 -0.452228
thorax -8.02652 0.60729 -0.64468
lowerneck -6.959 -1.85057 -6.7112
upperneck 3.40922 -2.30333 7.48246
head 2.55589 -1.04409 3.59976
rclavicle -9.97029e-015 2.78299e-015
rhumerus -38.9583 6.06284 -82.5954
rradius 28.791
rwrist 36.2136
rhand -14.7867 -49.5745
rfingers 7.12502
rthumb 11.3704 -79.2463
lclavicle -9.97029e-015 2.78299e-015
lhumerus -35.3998 7.45042 69.8163
lradius 29.1366
lwrist -22.1951
lhand 5.55522 -32.5565
lfingers 7.12502
lthumb 30.8994 -5.13591
rfemur -2.02307 17.9559 24.5459
rtibia 15.777
rfoot -15.3308 -27.5343
rtoes -2.39623
lfemur -7.27453 -19.836 -21.7533
ltibia 23.371
lfoot -20.4648 21.9541
ltoes -36.8678
156
root 8.97079 15.5309 22.485 181.935 2.80797 -179.585
lowerback 8.03021 0.944585 0.0118451
upperback -3.29421 1.25972 -0.443357
thorax -7.97432 0.612578 -0.662028
lowerneck -6.95253 -1.81227 -6.52457
upperneck 3.16658 -2.25104 7.33514
head 2.46067 -1.02023 3.51045
rclavicle 1.01442e-014 2.5842e-015
rhumerus -38.8806 5.54452 -82.0069
rradius 28.5956
rwrist 36.4637
rhand -14.6856 -49.191
rfingers 7.12502
rthumb 11.468 -78.8573
lclavicle 1.01442e-014 2.5842e-015
lhumerus -35.4522 7.73041 69.3136
lradius 29.33
lwrist -21.4892
lhand 6.45227 -32.3821
lfingers 7.12502
lthumb 31.7542 -5.12713
rfemur -2.19007 17.9535 24.5136
rtibia 15.8843
rfoot -15.4084 -27.3635
rtoes -2.15627
lfemur -7.33431 -19.7851 -21.7198
ltibia 23.3669
lfoot -20.3961 22.105
ltoes -36.9243
157
root 8.96305 15.5312 22.488 181.976 2.98831 -179.522
lowerback 8.05609 0.944815 0.138487
upperback -3.23321 1.27188 -0.44561
thorax -7.92082 0.611316 -0.73685
lowerneck -6.93748 -1.80887 -6.42969
upperneck 2.88949 -2.13559 7.34975
head 2.35562 -0.911952 3.50103
rclavicle 1.29521e-015 -3.57812e-015
rhumerus -38.8642 5.14752 -81.5317
rradius 28.5776
rwrist 35.8179
rhand -14.1335 -49.4431
rfingers 7.12502
rthumb 12.0004 -79.0791
lclavicle 1.29521e-015 -3.57812e-015
lhumerus -35.5471 8.21261 68.6966
lradius 29.3598
lwrist -21.3801
lhand 8.19262 -31.7397
lfingers 7.12502
lthumb 33.4101 -4.82689
rfemur -2.32466 17.9712 24.5123
rtibia 15.9764
rfoot -15.4221 -27.272
rtoes -2.08326
lfemur -7.36751 -19.6922 -21.6698
ltibia 23.362
lfoot -20.4451 22.1576
ltoes -36.76
158
root 8.95619 15.5301 22.4895 182.007 3.15086 -179.533
lowerback 8.18106 0.938073 0.156925
upperback -3.25077 1.26458 -0.445612
thorax -8.01206 0.606076 -0.749028
lowerneck -6.80455 -1.71366 -6.48215
upperneck 2.63367 -2.00027 7.4852
head 2.23889 -0.842495 3.5616
rclavicle 1.30918e-014 5.56597e-015
rhumerus -38.9413 4.84168 -81.0314
rradius 28.5913
rwrist 35.2968
rhand -13.8923 -49.7005
rfingers 7.12502
rthumb 12.2329 -79.3227
lclavicle 1.30918e-014 5.56597e-015
lhumerus -35.8031 8.95361 67.9509
lradius 29.3007
lwrist -21.7393
lhand 8.58694 -31.4013
lfingers 7.12502
lthumb 33.7849 -4.5701
rfemur -2.43144 18.0137 24.4436
rtibia 16.0361
rfoot -15.5216 -27.1583
rtoes -1.47013
lfemur -7.40405 -19.612 -21.6966
ltibia 23.377
lfoot -20.5943 22.134
ltoes -36.2462
159
root 8.95035 15.5282 22.4912 182.053 3.27533 -179.519
lowerback 8.32533 0.920969 0.193153
upperback -3.28854 1.24627 -0.441575
thorax -8.13624 0.594599 -0.765986
lowerneck -6.65643 -1.63593 -6.4062
upperneck 2.41722 -1.89694 7.44696
head 2.12863 -0.793617 3.53449
rclavicle 3.08427e-015 0
rhumerus -38.9997 4.37442 -80.3338
rradius 28.5086
rwrist 35.6468
rhand -13.7181 -49.1963
rfingers 7.12502
rthumb 12.4009 -78.8085
lclavicle 3.08427e-015 0
lhumerus -36.0995 9.70983 67.1198
lradius 29.2953
lwrist -22.0646
lhand 8.78897 -31.4839
lfingers 7.12502
lthumb 33.9768 -4.695
rfemur -2.55456 18.0414 24.4066
rtibia 16.1155
rfoot -15.6377 -27.0394
rtoes -0.972484
lfemur -7.46626 -19.5415 -21.6893
ltibia 23.3818
lfoot -20.6338 22.1221
ltoes -36.0741
